<svg xmlns="http://www.w3.org/2000/svg" viewBox="0 0 32 32">
  <path fill="#4C1D6E" d="M16 2C8.268 2 2 8.268 2 16s6.268 14 14 14c1.147 0 2.263-.138 3.33-.4-5.93-1.47-10.33-6.88-10.33-13.35S13.4 4.42 19.33 2.4C18.263 2.138 17.147 2 16 2z"/>
  <path fill="#D4AF37" d="M22 7l.5 1.5L24 9l-1.5.5L22 11l-.5-1.5L20 9l1.5-.5L22 7z"/>
  <path fill="#D4AF37" d="M26 12l.4 1.2 1.2.4-1.2.4-.4 1.2-.4-1.2-1.2-.4 1.2-.4.4-1.2z"/>
  <path fill="#D4AF37" d="M24 18l.3.9.9.3-.9.3-.3.9-.3-.9-.9-.3.9-.3.3-.9z"/>
</svg>
